<svg width="126" height="52" viewBox="0 0 126 52" fill="none" xmlns="http://www.w3.org/2000/svg">
<path d="M7.23633 51.0352V0H27.9551C30.3418 0 32.6777 0.330078 34.9629 0.990234C37.248 1.65039 39.3047 2.66602 41.1328 4.03711C43.0117 5.35742 44.4844 7.05859 45.5508 9.14062C46.668 11.2227 47.2266 13.6855 47.2266 16.5293C47.2266 19.6777 46.3887 22.3438 44.7129 24.5273C43.0879 26.6602 40.9297 28.2852 38.2383 29.4023C35.5977 30.4688 32.7539 31.002 29.707 31.002C28.9453 31.002 27.9551 30.9258 26.7363 30.7734C25.5684 30.5703 24.3242 30.3672 23.0039 30.1641C21.6836 29.9102 20.4395 29.6816 19.2715 29.4785C18.1543 29.2246 17.291 29.0215 16.6816 28.8691V22.3945C18.0527 22.9023 19.5762 23.3086 21.252 23.6133C22.9785 23.918 24.7051 24.0703 26.4316 24.0703C29.4785 24.0703 31.8906 23.3848 33.668 22.0137C35.4961 20.6426 36.4102 18.8145 36.4102 16.5293C36.4102 14.041 35.4453 12.1875 33.5156 10.9688C31.6367 9.75 29.3262 9.14062 26.584 9.14062H17.8242V51.0352H7.23633ZM35.5723 51.0352L16.6816 28.8691L25.8223 25.5938L49.5117 51.0352H35.5723ZM68.7832 51.0352L51.873 0H63.9082L73.3535 32.2207L84.0176 0H91.1016L101.689 32.2207L111.363 0H123.398L106.107 51.0352H98.7949L87.5215 18.2051L76.0957 51.0352H68.7832Z" fill="white"/>
</svg>
